REM DIRINDEX 1\2\3,1\2\4,1\2\5,1\2\6
REM DIRNAME cjc157,folder01,folder02,folder03,folder04,folder05
TITLE ""
FILE "145 145.mp3" MP3
  TRACK 01 AUDIO
    TITLE "0:"
    INDEX 01 00:00:00
  TRACK 02 AUDIO
    TITLE "3:cjc157_5422"
    INDEX 01 00:00:11
  TRACK 03 AUDIO
    TITLE "0:"
    INDEX 01 00:01:13
  TRACK 04 AUDIO
    TITLE "4:cjc157_5423"
    INDEX 01 00:01:60
  TRACK 05 AUDIO
    TITLE "0:"
    INDEX 01 00:02:67
  TRACK 06 AUDIO
    TITLE "5:cjc157_5424"
    INDEX 01 00:03:39
  TRACK 07 AUDIO
    TITLE "0:"
    INDEX 01 00:06:51
  TRACK 08 AUDIO
    TITLE "5:cjc157_5425"
    INDEX 01 00:07:25
  TRACK 09 AUDIO
    TITLE "0:"
    INDEX 01 00:08:72
  TRACK 10 AUDIO
    TITLE "3:cjc157_5426"
    INDEX 01 00:09:45
  TRACK 11 AUDIO
    TITLE "0:"
    INDEX 01 00:10:47
  TRACK 12 AUDIO
    TITLE "4:cjc157_5427"
    INDEX 01 00:11:15
  TRACK 13 AUDIO
    TITLE "0:"
    INDEX 01 00:12:36
  TRACK 14 AUDIO
    TITLE "5:cjc157_5428"
    INDEX 01 00:13:06
  TRACK 15 AUDIO
    TITLE "0:"
    INDEX 01 00:16:57
  TRACK 16 AUDIO
    TITLE "3:cjc157_5429"
    INDEX 01 00:17:29
  TRACK 17 AUDIO
    TITLE "0:"
    INDEX 01 00:18:52
  TRACK 18 AUDIO
    TITLE "4:cjc157_5430"
    INDEX 01 00:19:24
  TRACK 19 AUDIO
    TITLE "0:"
    INDEX 01 00:20:36
  TRACK 20 AUDIO
    TITLE "5:cjc157_5431"
    INDEX 01 00:21:04
  TRACK 21 AUDIO
    TITLE "0:"
    INDEX 01 00:23:20
  TRACK 22 AUDIO
    TITLE "3:cjc157_5432"
    INDEX 01 00:23:61
  TRACK 23 AUDIO
    TITLE "0:"
    INDEX 01 00:24:67
  TRACK 24 AUDIO
    TITLE "4:cjc157_5433"
    INDEX 01 00:25:37
  TRACK 25 AUDIO
    TITLE "0:"
    INDEX 01 00:26:52
  TRACK 26 AUDIO
    TITLE "5:cjc157_5434"
    INDEX 01 00:27:26
  TRACK 27 AUDIO
    TITLE "0:"
    INDEX 01 00:29:17
  TRACK 28 AUDIO
    TITLE "3:cjc157_5435"
    INDEX 01 00:29:68
  TRACK 29 AUDIO
    TITLE "0:"
    INDEX 01 00:30:69
  TRACK 30 AUDIO
    TITLE "4:cjc157_5436"
    INDEX 01 00:31:43
  TRACK 31 AUDIO
    TITLE "0:"
    INDEX 01 00:32:60
  TRACK 32 AUDIO
    TITLE "5:cjc157_5437"
    INDEX 01 00:33:30
  TRACK 33 AUDIO
    TITLE "0:"
    INDEX 01 00:37:01
  TRACK 34 AUDIO
    TITLE "3:cjc157_5438"
    INDEX 01 00:37:48
  TRACK 35 AUDIO
    TITLE "0:"
    INDEX 01 00:38:71
  TRACK 36 AUDIO
    TITLE "4:cjc157_5439"
    INDEX 01 00:39:43
  TRACK 37 AUDIO
    TITLE "0:"
    INDEX 01 00:40:58
  TRACK 38 AUDIO
    TITLE "5:cjc157_5440"
    INDEX 01 00:41:34
  TRACK 39 AUDIO
    TITLE "0:"
    INDEX 01 00:44:67
  TRACK 40 AUDIO
    TITLE "3:cjc157_5441"
    INDEX 01 00:45:37
  TRACK 41 AUDIO
    TITLE "0:"
    INDEX 01 00:46:54
  TRACK 42 AUDIO
    TITLE "4:cjc157_5442"
    INDEX 01 00:47:27
  TRACK 43 AUDIO
    TITLE "0:"
    INDEX 01 00:48:32
  TRACK 44 AUDIO
    TITLE "5:cjc157_5443"
    INDEX 01 00:49:00
  TRACK 45 AUDIO
    TITLE "0:"
    INDEX 01 00:51:67
  TRACK 46 AUDIO
    TITLE "5:cjc157_5444"
    INDEX 01 00:52:49
  TRACK 47 AUDIO
    TITLE "0:"
    INDEX 01 00:55:36
  TRACK 48 AUDIO
    TITLE "5:cjc157_5445"
    INDEX 01 00:56:02
  TRACK 49 AUDIO
    TITLE "0:"
    INDEX 01 00:57:66
  TRACK 50 AUDIO
    TITLE "3:cjc157_5446"
    INDEX 01 00:58:34
  TRACK 51 AUDIO
    TITLE "0:"
    INDEX 01 00:59:51
  TRACK 52 AUDIO
    TITLE "4:cjc157_5447"
    INDEX 01 01:00:23
  TRACK 53 AUDIO
    TITLE "0:"
    INDEX 01 01:01:34
  TRACK 54 AUDIO
    TITLE "5:cjc157_5448"
    INDEX 01 01:02:03
  TRACK 55 AUDIO
    TITLE "0:"
    INDEX 01 01:05:30
  TRACK 56 AUDIO
    TITLE "5:cjc157_5449"
    INDEX 01 01:06:00
  TRACK 57 AUDIO
    TITLE "0:"
    INDEX 01 01:08:74
  TRACK 58 AUDIO
    TITLE "5:cjc157_5450"
    INDEX 01 01:09:42
  TRACK 59 AUDIO
    TITLE "0:"
    INDEX 01 01:11:17
  TRACK 60 AUDIO
    TITLE "3:cjc157_5451"
    INDEX 01 01:11:64
  TRACK 61 AUDIO
    TITLE "0:"
    INDEX 01 01:12:64
  TRACK 62 AUDIO
    TITLE "4:cjc157_5452"
    INDEX 01 01:13:36
  TRACK 63 AUDIO
    TITLE "0:"
    INDEX 01 01:14:49
  TRACK 64 AUDIO
    TITLE "5:cjc157_5453"
    INDEX 01 01:15:23
  TRACK 65 AUDIO
    TITLE "0:"
    INDEX 01 01:17:49
  TRACK 66 AUDIO
    TITLE "5:cjc157_5454"
    INDEX 01 01:18:19
  TRACK 67 AUDIO
    TITLE "0:"
    INDEX 01 01:20:24
  TRACK 68 AUDIO
    TITLE "3:cjc157_5455"
    INDEX 01 01:20:71
  TRACK 69 AUDIO
    TITLE "0:"
    INDEX 01 01:22:25
  TRACK 70 AUDIO
    TITLE "4:cjc157_5456"
    INDEX 01 01:22:70
  TRACK 71 AUDIO
    TITLE "0:"
    INDEX 01 01:24:10
  TRACK 72 AUDIO
    TITLE "5:cjc157_5457"
    INDEX 01 01:24:57
  TRACK 73 AUDIO
    TITLE "0:"
    INDEX 01 01:27:34
  TRACK 74 AUDIO
    TITLE "5:cjc157_5458"
    INDEX 01 01:28:08
  TRACK 75 AUDIO
    TITLE "0:"
    INDEX 01 01:30:71
